<svg xmlns="http://www.w3.org/2000/svg" viewBox="0 0 512 512">
  <defs>
    <linearGradient id="panel" x1="0" x2="0" y1="0" y2="1">
      <stop offset="0" stop-color="#7f4929" />
      <stop offset="1" stop-color="#4f2f20" />
    </linearGradient>
    <linearGradient id="strings" x1="0" x2="1" y1="0" y2="0">
      <stop offset="0" stop-color="#f7dfc5" />
      <stop offset="1" stop-color="#efc798" />
    </linearGradient>
  </defs>
  <rect width="512" height="512" rx="120" fill="#f4ebde" />
  <rect x="58" y="92" width="396" height="328" rx="54" fill="url(#panel)" />
  <g fill="none" stroke-linecap="round">
    <path d="M141 142v228" stroke="#8c674c" stroke-width="10" />
    <path d="M205 142v228" stroke="#8c674c" stroke-width="8" />
    <path d="M269 142v228" stroke="#8c674c" stroke-width="8" />
    <path d="M333 142v228" stroke="#8c674c" stroke-width="8" />
    <path d="M397 142v228" stroke="#8c674c" stroke-width="8" />
    <path d="M120 168h292" stroke="url(#strings)" stroke-width="6" />
    <path d="M120 210h292" stroke="url(#strings)" stroke-width="6" />
    <path d="M120 252h292" stroke="url(#strings)" stroke-width="6" />
    <path d="M120 294h292" stroke="url(#strings)" stroke-width="6" />
    <path d="M120 336h292" stroke="url(#strings)" stroke-width="6" />
  </g>
  <circle cx="176" cy="210" r="30" fill="#f3d1a7" />
  <circle cx="240" cy="294" r="30" fill="#f3d1a7" />
  <circle cx="304" cy="168" r="30" fill="#f3d1a7" />
  <g fill="#4a2f20" font-family="Trebuchet MS, Segoe UI, sans-serif" font-size="28" font-weight="700" text-anchor="middle">
    <text x="176" y="219">R</text>
    <text x="240" y="303">3</text>
    <text x="304" y="177">5</text>
  </g>
</svg>